<mxfile host="Electron" agent="Mozilla/5.0 (Windows NT 10.0; Win64; x64) AppleWebKit/537.36 (KHTML, like Gecko) draw.io/24.7.5 Chrome/126.0.6478.183 Electron/31.3.0 Safari/537.36" version="24.7.5">
  <diagram name="第 1 页" id="atfmBqmq5byIupUufjR0">
    <mxGraphModel dx="659" dy="494" grid="1" gridSize="10" guides="1" tooltips="1" connect="1" arrows="1" fold="1" page="1" pageScale="1" pageWidth="827" pageHeight="1169" math="0" shadow="0">
      <root>
        <mxCell id="0" />
        <mxCell id="1" parent="0" />
        <mxCell id="nLB94B9WgQLMp2BuRATS-10" style="rounded=0;orthogonalLoop=1;jettySize=auto;html=1;exitX=1;exitY=1;exitDx=0;exitDy=0;entryX=0;entryY=0;entryDx=0;entryDy=0;strokeColor=#FF0000;strokeWidth=3;endArrow=doubleBlock;endFill=0;" edge="1" parent="1" source="nLB94B9WgQLMp2BuRATS-3" target="nLB94B9WgQLMp2BuRATS-2">
          <mxGeometry relative="1" as="geometry" />
        </mxCell>
        <mxCell id="nLB94B9WgQLMp2BuRATS-1" value="Lock A" style="rounded=0;whiteSpace=wrap;html=1;fillColor=#e1d5e7;strokeColor=#9673a6;" vertex="1" parent="1">
          <mxGeometry x="245" y="640" width="100" height="50" as="geometry" />
        </mxCell>
        <mxCell id="nLB94B9WgQLMp2BuRATS-2" value="Lock B" style="rounded=0;whiteSpace=wrap;html=1;fillColor=#e1d5e7;strokeColor=#9673a6;" vertex="1" parent="1">
          <mxGeometry x="465" y="640" width="100" height="50" as="geometry" />
        </mxCell>
        <mxCell id="nLB94B9WgQLMp2BuRATS-5" style="rounded=0;orthogonalLoop=1;jettySize=auto;html=1;exitX=0.5;exitY=1;exitDx=0;exitDy=0;entryX=0.5;entryY=0;entryDx=0;entryDy=0;strokeColor=#0000FF;startArrow=classic;startFill=1;endArrow=none;endFill=0;" edge="1" parent="1" source="nLB94B9WgQLMp2BuRATS-3" target="nLB94B9WgQLMp2BuRATS-1">
          <mxGeometry relative="1" as="geometry" />
        </mxCell>
        <mxCell id="nLB94B9WgQLMp2BuRATS-7" value="&lt;font style=&quot;font-size: 15px;&quot;&gt;Hold&lt;/font&gt;" style="edgeLabel;html=1;align=center;verticalAlign=middle;resizable=0;points=[];" vertex="1" connectable="0" parent="nLB94B9WgQLMp2BuRATS-5">
          <mxGeometry x="0.0269" y="-4" relative="1" as="geometry">
            <mxPoint as="offset" />
          </mxGeometry>
        </mxCell>
        <mxCell id="nLB94B9WgQLMp2BuRATS-3" value="Thread 1" style="ellipse;whiteSpace=wrap;html=1;aspect=fixed;fillColor=#fff2cc;strokeColor=#d6b656;" vertex="1" parent="1">
          <mxGeometry x="275" y="430" width="70" height="70" as="geometry" />
        </mxCell>
        <mxCell id="nLB94B9WgQLMp2BuRATS-6" style="rounded=0;orthogonalLoop=1;jettySize=auto;html=1;exitX=0.5;exitY=1;exitDx=0;exitDy=0;entryX=0.5;entryY=0;entryDx=0;entryDy=0;strokeColor=#0000FF;startArrow=classic;startFill=1;endArrow=none;endFill=0;" edge="1" parent="1" source="nLB94B9WgQLMp2BuRATS-4" target="nLB94B9WgQLMp2BuRATS-2">
          <mxGeometry relative="1" as="geometry" />
        </mxCell>
        <mxCell id="nLB94B9WgQLMp2BuRATS-8" value="&lt;font style=&quot;font-size: 15px;&quot;&gt;Hold&lt;/font&gt;" style="edgeLabel;html=1;align=center;verticalAlign=middle;resizable=0;points=[];" vertex="1" connectable="0" parent="nLB94B9WgQLMp2BuRATS-6">
          <mxGeometry x="-0.0125" y="2" relative="1" as="geometry">
            <mxPoint as="offset" />
          </mxGeometry>
        </mxCell>
        <mxCell id="nLB94B9WgQLMp2BuRATS-4" value="Thread 2" style="ellipse;whiteSpace=wrap;html=1;aspect=fixed;fillColor=#fff2cc;strokeColor=#d6b656;" vertex="1" parent="1">
          <mxGeometry x="465" y="430" width="70" height="70" as="geometry" />
        </mxCell>
        <mxCell id="nLB94B9WgQLMp2BuRATS-11" style="rounded=0;orthogonalLoop=1;jettySize=auto;html=1;exitX=0;exitY=1;exitDx=0;exitDy=0;entryX=1;entryY=0;entryDx=0;entryDy=0;strokeColor=#FF0000;strokeWidth=3;endArrow=doubleBlock;endFill=0;" edge="1" parent="1" source="nLB94B9WgQLMp2BuRATS-4" target="nLB94B9WgQLMp2BuRATS-1">
          <mxGeometry relative="1" as="geometry">
            <mxPoint x="345" y="500" as="sourcePoint" />
            <mxPoint x="460" y="660" as="targetPoint" />
          </mxGeometry>
        </mxCell>
        <mxCell id="nLB94B9WgQLMp2BuRATS-13" style="rounded=0;orthogonalLoop=1;jettySize=auto;html=1;exitX=1;exitY=1;exitDx=0;exitDy=0;entryX=0;entryY=0;entryDx=0;entryDy=0;strokeColor=#FF0000;strokeWidth=3;endArrow=doubleBlock;endFill=0;" edge="1" parent="1" source="nLB94B9WgQLMp2BuRATS-18" target="nLB94B9WgQLMp2BuRATS-15">
          <mxGeometry relative="1" as="geometry" />
        </mxCell>
        <mxCell id="nLB94B9WgQLMp2BuRATS-14" value="Lock A" style="rounded=0;whiteSpace=wrap;html=1;fillColor=#e1d5e7;strokeColor=#9673a6;" vertex="1" parent="1">
          <mxGeometry x="145" y="1110" width="100" height="50" as="geometry" />
        </mxCell>
        <mxCell id="nLB94B9WgQLMp2BuRATS-15" value="Lock B" style="rounded=0;whiteSpace=wrap;html=1;fillColor=#e1d5e7;strokeColor=#9673a6;" vertex="1" parent="1">
          <mxGeometry x="365" y="1110" width="100" height="50" as="geometry" />
        </mxCell>
        <mxCell id="nLB94B9WgQLMp2BuRATS-16" style="rounded=0;orthogonalLoop=1;jettySize=auto;html=1;exitX=0.5;exitY=1;exitDx=0;exitDy=0;entryX=0.5;entryY=0;entryDx=0;entryDy=0;strokeColor=#0000FF;startArrow=classic;startFill=1;endArrow=none;endFill=0;" edge="1" parent="1" source="nLB94B9WgQLMp2BuRATS-18" target="nLB94B9WgQLMp2BuRATS-14">
          <mxGeometry relative="1" as="geometry" />
        </mxCell>
        <mxCell id="nLB94B9WgQLMp2BuRATS-17" value="&lt;font style=&quot;font-size: 15px;&quot;&gt;Hold&lt;/font&gt;" style="edgeLabel;html=1;align=center;verticalAlign=middle;resizable=0;points=[];" vertex="1" connectable="0" parent="nLB94B9WgQLMp2BuRATS-16">
          <mxGeometry x="0.0269" y="-4" relative="1" as="geometry">
            <mxPoint as="offset" />
          </mxGeometry>
        </mxCell>
        <mxCell id="nLB94B9WgQLMp2BuRATS-18" value="BatchUpdate 1" style="ellipse;whiteSpace=wrap;html=1;aspect=fixed;fillColor=#fff2cc;strokeColor=#d6b656;" vertex="1" parent="1">
          <mxGeometry x="175" y="890" width="80" height="80" as="geometry" />
        </mxCell>
        <mxCell id="nLB94B9WgQLMp2BuRATS-19" style="rounded=0;orthogonalLoop=1;jettySize=auto;html=1;exitX=0.5;exitY=1;exitDx=0;exitDy=0;entryX=0.5;entryY=0;entryDx=0;entryDy=0;strokeColor=#0000FF;startArrow=classic;startFill=1;endArrow=none;endFill=0;" edge="1" parent="1" source="nLB94B9WgQLMp2BuRATS-21" target="nLB94B9WgQLMp2BuRATS-15">
          <mxGeometry relative="1" as="geometry" />
        </mxCell>
        <mxCell id="nLB94B9WgQLMp2BuRATS-20" value="&lt;font style=&quot;font-size: 15px;&quot;&gt;Hold&lt;/font&gt;" style="edgeLabel;html=1;align=center;verticalAlign=middle;resizable=0;points=[];" vertex="1" connectable="0" parent="nLB94B9WgQLMp2BuRATS-19">
          <mxGeometry x="-0.0125" y="2" relative="1" as="geometry">
            <mxPoint as="offset" />
          </mxGeometry>
        </mxCell>
        <mxCell id="nLB94B9WgQLMp2BuRATS-21" value="BatchUpdate 2" style="ellipse;whiteSpace=wrap;html=1;aspect=fixed;fillColor=#fff2cc;strokeColor=#d6b656;" vertex="1" parent="1">
          <mxGeometry x="365" y="890" width="80" height="80" as="geometry" />
        </mxCell>
        <mxCell id="nLB94B9WgQLMp2BuRATS-22" style="rounded=0;orthogonalLoop=1;jettySize=auto;html=1;exitX=0;exitY=1;exitDx=0;exitDy=0;entryX=1;entryY=0;entryDx=0;entryDy=0;strokeColor=#FF0000;strokeWidth=3;endArrow=doubleBlock;endFill=0;" edge="1" parent="1" source="nLB94B9WgQLMp2BuRATS-21" target="nLB94B9WgQLMp2BuRATS-14">
          <mxGeometry relative="1" as="geometry">
            <mxPoint x="245" y="970" as="sourcePoint" />
            <mxPoint x="360" y="1130" as="targetPoint" />
          </mxGeometry>
        </mxCell>
        <mxCell id="nLB94B9WgQLMp2BuRATS-25" style="edgeStyle=orthogonalEdgeStyle;rounded=0;orthogonalLoop=1;jettySize=auto;html=1;exitX=0.5;exitY=0;exitDx=0;exitDy=0;entryX=0.5;entryY=1;entryDx=0;entryDy=0;" edge="1" parent="1" source="nLB94B9WgQLMp2BuRATS-23" target="nLB94B9WgQLMp2BuRATS-14">
          <mxGeometry relative="1" as="geometry" />
        </mxCell>
        <mxCell id="nLB94B9WgQLMp2BuRATS-23" value="id_1: 50" style="rounded=0;whiteSpace=wrap;html=1;fillColor=#d5e8d4;strokeColor=#82b366;" vertex="1" parent="1">
          <mxGeometry x="157.5" y="1190" width="75" height="60" as="geometry" />
        </mxCell>
        <mxCell id="nLB94B9WgQLMp2BuRATS-26" style="edgeStyle=orthogonalEdgeStyle;rounded=0;orthogonalLoop=1;jettySize=auto;html=1;exitX=0.5;exitY=0;exitDx=0;exitDy=0;entryX=0.5;entryY=1;entryDx=0;entryDy=0;" edge="1" parent="1" source="nLB94B9WgQLMp2BuRATS-24" target="nLB94B9WgQLMp2BuRATS-15">
          <mxGeometry relative="1" as="geometry" />
        </mxCell>
        <mxCell id="nLB94B9WgQLMp2BuRATS-24" value="id_1: 100" style="rounded=0;whiteSpace=wrap;html=1;fillColor=#d5e8d4;strokeColor=#82b366;" vertex="1" parent="1">
          <mxGeometry x="377.5" y="1190" width="75" height="60" as="geometry" />
        </mxCell>
        <mxCell id="nLB94B9WgQLMp2BuRATS-27" value="" style="shape=link;html=1;rounded=0;" edge="1" parent="1">
          <mxGeometry width="100" relative="1" as="geometry">
            <mxPoint x="40" y="1070" as="sourcePoint" />
            <mxPoint x="540" y="1070" as="targetPoint" />
          </mxGeometry>
        </mxCell>
        <mxCell id="nLB94B9WgQLMp2BuRATS-28" value="DB" style="shape=cylinder3;whiteSpace=wrap;html=1;boundedLbl=1;backgroundOutline=1;size=15;fillColor=#dae8fc;strokeColor=#6c8ebf;" vertex="1" parent="1">
          <mxGeometry x="50" y="1130" width="60" height="80" as="geometry" />
        </mxCell>
        <mxCell id="nLB94B9WgQLMp2BuRATS-31" value="" style="shape=image;verticalLabelPosition=bottom;labelBackgroundColor=default;verticalAlign=top;aspect=fixed;imageAspect=0;image=https://purepng.com/public/uploads/large/purepng.com-cpu-processorelectronicscpuprocessor-941524672298crgm4.png;" vertex="1" parent="1">
          <mxGeometry x="50" y="940" width="70" height="63.94" as="geometry" />
        </mxCell>
      </root>
    </mxGraphModel>
  </diagram>
</mxfile>
